#!OML:ASF I:\Actors\actors\Patient Classification 1\Patient 1\Session 1\Subject1.ASF
:FULLY-SPECIFIED
:DEGREES
367
root -0.0306266 17.6328 9.02223 7.61917 33.2081 -8.89719
lowerback 4.69888 4.65996 5.25446
upperback -10.0181 6.92885 -1.36358
thorax -12.7486 2.77483 -5.46132
lowerneck -11.3985 0.789735 1.22896
upperneck 21.9254 -0.954025 8.85934
head 8.78284 0.667836 2.71296
rclavicle 4.27387e-015 -1.35174e-014
rhumerus -2.84682 32.2174 -95.356
rradius 137.862
rwrist 34.2148
rhand 39.3963 -46.5818
rfingers 7.12502
rthumb 61.8929 -58.2084
lclavicle 4.27387e-015 -1.35174e-014
lhumerus -15.6443 -30.4126 98.4145
lradius 139.141
lwrist -16.7702
lhand 52.1178 6.13415
lfingers 7.12502
lthumb 71.2722 -2.68628
rfemur -1.84459 9.01584 29.2727
rtibia 6.90895
rfoot -25.7862 -39.8889
rtoes 18.387
lfemur -15.5024 -32.5541 -0.960328
ltibia 4.38383
lfoot -4.60249 17.223
ltoes -22.9969
368
root -0.0133636 17.6028 9.03199 7.50661 33.099 -8.5816
lowerback 4.13391 4.62753 5.17754
upperback -10.3017 6.86215 -1.36009
thorax -12.7496 2.75279 -5.3664
lowerneck -11.4008 0.83657 1.41249
upperneck 22.5851 -0.948421 8.78379
head 9.01093 0.705794 2.67553
rclavicle -8.71671e-014 -2.14687e-014
rhumerus -3.35514 32.448 -95.838
rradius 137.869
rwrist 34.1919
rhand 39.2257 -47.0743
rfingers 7.12502
rthumb 61.7502 -58.8757
lclavicle -8.71671e-014 -2.14687e-014
lhumerus -16.0634 -30.3341 98.7454
lradius 139.257
lwrist -15.9406
lhand 53.1583 7.75634
lfingers 7.12502
lthumb 71.8677 -3.62533
rfemur -0.993097 9.6464 29.0443
rtibia 6.17922
rfoot -26.216 -40.1392
rtoes 19.0042
lfemur -14.7982 -32.5575 -1.54152
ltibia 3.97955
lfoot -4.77891 16.9356
ltoes -22.6309
369
root 5.2849e-005 17.5793 9.03406 7.21371 33.171 -8.54583
lowerback 3.66477 4.54696 5.38158
upperback -10.4656 6.76164 -1.31497
thorax -12.6501 2.6943 -5.37738
lowerneck -11.5204 0.856317 1.60432
upperneck 23.1645 -0.996997 8.76162
head 9.23869 0.724321 2.64873
rclavicle 1.19271e-015 -6.36111e-015
rhumerus -3.98302 32.5098 -96.4495
rradius 137.948
rwrist 33.9127
rhand 39.2488 -47.2318
rfingers 7.12502
rthumb 61.7696 -59.0097
lclavicle 1.19271e-015 -6.36111e-015
lhumerus -16.5109 -30.3371 99.0742
lradius 139.436
lwrist -15.1093
lhand 54.8385 8.88528
lfingers 7.12502
lthumb 72.743 -6.99429
rfemur -0.426173 9.74699 29.0189
rtibia 5.9033
rfoot -26.4698 -40.1441
rtoes 19.0476
lfemur -14.2918 -32.5538 -1.83369
ltibia 3.75467
lfoot -4.89627 16.5911
ltoes -23.1034
370
root 0.0101671 17.5654 9.03179 6.78392 33.3166 -8.64482
lowerback 3.32043 4.42824 5.65659
upperback -10.4931 6.62175 -1.18145
thorax -12.4767 2.61897 -5.33079
lowerneck -11.6408 0.928186 1.83182
upperneck 23.4624 -0.919202 8.54153
head 9.36241 0.770865 2.55248
rclavicle 3.99557e-014 3.57812e-014
rhumerus -4.69057 32.5508 -97.0346
rradius 138.035
rwrist 33.7864
rhand 39.3654 -47.1465
rfingers 7.12502
rthumb 61.8671 -58.805
lclavicle 3.99557e-014 3.57812e-014
lhumerus -16.978 -30.3723 99.4201
lradius 139.526
lwrist -14.8778
lhand 56.0468 8.7818
lfingers 7.12502
lthumb 73.2987 -10.6133
rfemur -0.0148991 9.62693 29.1111
rtibia 5.9563
rfoot -26.6367 -40.1002
rtoes 18.8291
lfemur -13.8021 -32.6475 -2.04773
ltibia 3.62931
lfoot -4.93837 16.4049
ltoes -23.6827
371
root 0.0159358 17.5608 9.02557 6.30587 33.4499 -8.73791
lowerback 3.14311 4.32831 5.88578
upperback -10.4292 6.50631 -1.03666
thorax -12.3025 2.56017 -5.26218
lowerneck -11.7544 0.954624 1.98408
upperneck 23.5052 -0.861551 8.26361
head 9.39542 0.78336 2.43864
rclavicle -2.43511e-014 -8.74653e-015
rhumerus -5.31963 32.6202 -97.5038
rradius 138.065
rwrist 33.8387
rhand 39.2941 -47.2041
rfingers 7.12502
rthumb 61.8075 -58.9357
lclavicle -2.43511e-014 -8.74653e-015
lhumerus -17.3857 -30.5214 99.6891
lradius 139.585
lwrist -14.9378
lhand 56.653 8.69786
lfingers 7.12502
lthumb 73.5518 -12.5477
rfemur 0.329904 9.45717 29.2072
rtibia 6.16422
rfoot -26.8003 -40.0578
rtoes 18.6719
lfemur -13.29 -32.8462 -2.32244
ltibia 3.60217
lfoot -4.90324 16.4284
ltoes -24.0207
372
root 0.0164413 17.5612 9.01605 5.85556 33.5067 -8.75505
lowerback 3.02097 4.22522 5.94403
upperback -10.2869 6.37242 -0.836868
thorax -12.0947 2.51446 -5.0397
lowerneck -11.7713 0.966866 1.79246
upperneck 23.3701 -0.796944 8.25244
head 9.34678 0.788744 2.47054
rclavicle -1.0476e-013 -3.10104e-014
rhumerus -5.72255 32.8709 -97.766
rradius 138.123
rwrist 33.5157
rhand 39.2726 -47.6674
rfingers 7.12502
rthumb 61.7895 -59.421
lclavicle -1.0476e-013 -3.10104e-014
lhumerus -17.6261 -30.5996 99.8326
lradius 139.627
lwrist -15.0452
lhand 56.9838 8.94703
lfingers 7.12502
lthumb 73.6823 -13.3326
rfemur 0.638947 9.35412 29.2524
rtibia 6.41184
rfoot -27.0442 -40.056
rtoes 18.8244
lfemur -12.7028 -33.1973 -2.69321
ltibia 3.53088
lfoot -4.79132 16.7203
ltoes -24.0549
373
root 0.0121933 17.5623 9.0069 5.4691 33.4294 -8.67239
lowerback 2.95097 4.13693 5.80798
upperback -10.1256 6.24153 -0.640725
thorax -11.9127 2.48645 -4.72064
lowerneck -11.6948 1.00994 1.47442
upperneck 23.1319 -0.69186 8.41926
head 9.24292 0.816264 2.58614
rclavicle 4.47266e-015 -2.22639e-014
rhumerus -5.96258 33.1106 -97.9091
rradius 138.151
rwrist 32.989
rhand 39.5068 -48.1693
rfingers 7.12502
rthumb 61.9851 -59.6817
lclavicle 4.47266e-015 -2.22639e-014
lhumerus -17.6953 -30.6085 99.7401
lradius 139.595
lwrist -15.04
lhand 56.9745 9.30776
lfingers 7.12502
lthumb 73.6787 -12.9426
rfemur 0.926096 9.37978 29.2353
rtibia 6.68249
rfoot -27.2023 -40.0978
rtoes 18.9352
lfemur -11.9393 -33.763 -3.17464
ltibia 3.2714
lfoot -4.57143 17.324
ltoes -24.1744
